# xmcd
# Track frame offsets:
# 150
# 10552
# 22250
# 34180
# 45880
# 59157
# 70377
# 81535
# 90215
# 101205
# 111332
# 124357
# 135835
# 143925
#
# Disc length: 2082 seconds
# Revision: 0
# Processed by: cddbd v1.5.1PL0 Copyright (c) Steve Scherf et al.
# Submitted via: VisiTrax 2.9.10.228 - For more info visit www.synapsa.com
#
DISCID=c308200e
DTITLE=Various Artist - Deep In The Heart Of Country
DYEAR=1995
DGENRE=Country
TTITLE0=Glen Campbell - Try A Little Kindness (live)
TTITLE1=Jerry Wallace - There She Goes
TTITLE2=Conway Twitty - You Made Me What I Am Today
TTITLE3=Roger Miller - Little Green Apples
TTITLE4=Bill Anderson - Your Eyes Don't Lie To Me
TTITLE5=Johnny Cash - Big River
TTITLE6=Buck Owens - Down On The Corner Of Love
TTITLE7=Waylon Jennings - Love's Gonna Live Here Again
TTITLE8=George Jones - Tender Years
TTITLE9=Dave Dudley - Six Days On The Road
TTITLE10=Leroy Van Dyke - The Auctioneer
TTITLE11=Patsy Cline - Walking After Midnight
TTITLE12=Roger Miller - Dang Me
TTITLE13=Johnny Cash - Folsom Prison Blues
EXTD=
EXTT0=
EXTT1=
EXTT2=
EXTT3=
EXTT4=
EXTT5=
EXTT6=
EXTT7=
EXTT8=
EXTT9=
EXTT10=
EXTT11=
EXTT12=
EXTT13=
PLAYORDER=
